<svg width="92" height="35" viewBox="0 0 92 35" fill="none" xmlns="http://www.w3.org/2000/svg">
<path d="M39.8413 1.44917C44.0385 2.46216 48.351 2.72173 52.6445 3.09321C57.8565 3.62203 62.1542 4.96746 67 6.97016C67 7.63016 67 8.29016 67 8.97016C70.3326 10.871 73.4981 11.5581 77.25 12.2827C83.142 13.5713 87.1398 15.4441 92 18.9702C91.7422 20.8295 91.7422 20.8295 91 22.9702C89.2578 24.2358 89.2578 24.2358 87.125 25.2202C86.077 25.7229 86.077 25.7229 85.0078 26.2358C83 26.9702 83 26.9702 80 26.9702C80 27.6302 80 28.2902 80 28.9702C72.5461 31.9784 66.293 32.2828 58.3125 32.0327C48.9644 31.6555 48.9644 31.6555 40 33.9702C28.6446 36.2803 18.0675 33.5717 7 30.9702C6.67 29.9802 6.34 28.9902 6 27.9702C4.04403 26.573 2.04564 25.2324 0 23.9702C0.125 21.2202 0.125 21.2202 1 17.9702C3.95381 15.5943 6.4097 14.1669 10 12.9702C10.6806 12.2483 11.3612 11.5264 12.0625 10.7827C17.3803 5.28919 24.2147 1.75324 31.6016 0.00141409C34.5088 -0.0364655 37.0503 0.692828 39.8413 1.44917Z" fill="#020202"/>
<path d="M41.75 3.53292C44.7166 5.26225 44.7166 5.26225 46.7969 4.44699C50.0496 3.74337 52.3641 4.76518 55.5 5.78292C56.6241 6.13999 57.7481 6.49706 58.9062 6.86495C61.4028 7.75702 63.6748 8.71094 66 9.97042C66 10.6304 66 11.2904 66 11.9704C66.999 12.1522 67.998 12.3339 69.0273 12.5212C70.3177 12.7726 71.608 13.0239 72.9375 13.2829C74.2253 13.5266 75.513 13.7702 76.8398 14.0212C77.8827 14.3344 78.9255 14.6477 80 14.9704C80.495 16.4554 80.495 16.4554 81 17.9704C82.65 18.3004 84.3 18.6304 86 18.9704C85.67 19.6304 85.34 20.2904 85 20.9704C84.3361 20.8634 83.6723 20.7564 82.9883 20.6462C77.4254 19.891 74.7565 19.7565 70 22.9704C66.1875 23.1579 66.1875 23.1579 63 22.9704C62.7525 22.331 62.505 21.6917 62.25 21.0329C61.2226 18.8496 61.2226 18.8496 59.3047 18.361C50.3449 16.8424 41.9996 17.5244 34 21.9704C33.34 22.6304 32.68 23.2904 32 23.9704C29.6684 24.3158 27.3349 24.6484 25 24.9704C24.01 25.5273 24.01 25.5273 23 26.0954C19.7102 27.5347 17.4361 26.8294 14 25.9704C11.2022 24.4809 8.59053 22.7939 6 20.9704C6.875 16.0954 6.875 16.0954 8 14.9704C9.99958 14.9296 12.0005 14.9279 14 14.9704C14.2475 14.3723 14.495 13.7742 14.75 13.1579C16.1807 10.6542 17.5692 9.4897 20 7.97042C20.66 7.97042 21.32 7.97042 22 7.97042C22 7.31042 22 6.65042 22 5.97042C22.99 5.97042 23.98 5.97042 25 5.97042C25 5.31042 25 4.65042 25 3.97042C30.6034 1.16873 36.1243 0.90117 41.75 3.53292Z" fill="#F2F5F2"/>
<path d="M39.793 1.46215C44.0167 2.43398 48.3337 2.72003 52.6445 3.09301C57.8565 3.62183 62.1542 4.96726 67 6.96996C67 7.62996 67 8.28996 67 8.96996C70.5054 10.933 74.1335 11.929 78 12.97C77.67 13.63 77.34 14.29 77 14.97C75.7419 14.8462 74.4837 14.7225 73.1875 14.595C72.4798 14.5253 71.7721 14.4557 71.043 14.384C69 13.97 69 13.97 66 11.97C66 11.31 66 10.65 66 9.96996C55.1517 5.61655 55.1517 5.61655 44 5.96996C43.1131 5.49558 42.2262 5.02121 41.3125 4.53246C35.9147 1.98635 30.7657 2.52853 25 3.96996C25 4.62996 25 5.28996 25 5.96996C24.01 5.96996 23.02 5.96996 22 5.96996C22 6.62996 22 7.28996 22 7.96996C20.0067 9.31328 18.0062 10.6459 16 11.97C15.01 13.455 15.01 13.455 14 14.97C10.375 15.1575 10.375 15.1575 7 14.97C13.0807 8.0961 22.2036 2.66057 31 0.0949594C34.1917 -0.0380302 36.7265 0.660488 39.793 1.46215Z" fill="#121312"/>
<path d="M42 1.97046C38.5934 2.94161 35.5159 2.99219 31.9727 2.93921C29.5633 2.97738 27.3339 3.38698 25 3.97046C25 4.63046 25 5.29046 25 5.97046C24.01 5.97046 23.02 5.97046 22 5.97046C22 6.63046 22 7.29046 22 7.97046C20.0067 9.31377 18.0062 10.6464 16 11.9705C15.01 13.4555 15.01 13.4555 14 14.9705C10.375 15.158 10.375 15.158 7 14.9705C13.0807 8.0966 22.2036 2.66107 31 0.0954575C35.0093 -0.0715971 38.1527 0.842798 42 1.97046Z" fill="#0E0F0E"/>
<path d="M40 2.97021C42.2911 2.88946 44.583 2.83114 46.875 2.78271C48.7893 2.73051 48.7893 2.73051 50.7422 2.67725C51.8173 2.77393 52.8923 2.87061 54 2.97021C54.66 3.96021 55.32 4.95021 56 5.97021C55.3851 5.88643 54.7702 5.80264 54.1367 5.71631C53.3285 5.61447 52.5202 5.51264 51.6875 5.40771C50.887 5.3033 50.0865 5.19889 49.2617 5.09131C46.8318 4.82266 46.8318 4.82266 44 5.97021C41.8125 4.53271 41.8125 4.53271 40 2.97021Z" fill="#1A1A1A"/>
<path d="M80 15.9702C80.33 16.6302 80.66 17.2902 81 17.9702C83.5273 18.6258 83.5273 18.6258 86 18.9702C85.67 19.6302 85.34 20.2902 85 20.9702C82.03 20.4752 82.03 20.4752 79 19.9702C79.33 18.6502 79.66 17.3302 80 15.9702Z" fill="#C3C8C3"/>
<path d="M32 22.9702C32.33 23.6302 32.66 24.2902 33 24.9702C31.02 24.9702 29.04 24.9702 27 24.9702C27 25.6302 27 26.2902 27 26.9702C25.02 26.9702 23.04 26.9702 21 26.9702C24.4235 23.8206 27.4426 23.4084 32 22.9702Z" fill="#474647"/>
<path d="M51 14.9702C53.64 14.9702 56.28 14.9702 59 14.9702C59 15.9602 59 16.9502 59 17.9702C56.36 17.6402 53.72 17.3102 51 16.9702C51 16.3102 51 15.6502 51 14.9702Z" fill="#E8EEE8"/>
</svg>
