<svg width="186" height="77" viewBox="0 0 186 77" fill="none" xmlns="http://www.w3.org/2000/svg">
<path d="M85.1982 0.155802C97.3075 -0.446865 105.413 0.3737 114.938 8.52055C115.462 9.0207 115.987 9.52086 116.527 10.0362C118.1 11.5078 118.1 11.5078 121 12.2705C121.721 14.0071 122.438 15.7453 123.121 17.4971C124.466 20.2098 126.564 21.5472 129 23.2705C129.566 23.9099 130.132 24.5493 130.715 25.208C133.56 27.7762 136.574 28.8361 140.125 30.083C148.52 33.2419 155.196 37.4668 161.562 43.833C166.554 48.412 172.942 49.9951 179.27 52.0088C183 53.2705 183 53.2705 186 55.2705C186 56.2606 186 57.2505 186 58.2705C182.275 59.9731 179.266 60.5066 175.188 60.6455C170.254 60.9656 167.113 61.9578 162.891 64.4151C159.593 65.907 156.559 65.5248 153 65.2705C153 66.2605 153 67.2505 153 68.2705C152.01 68.2705 151.02 68.2705 150 68.2705C149.67 69.2605 149.34 70.2505 149 71.2705C143.923 73.614 138.504 73.8572 133 74.2705C133 74.9305 133 75.5905 133 76.2705C131.68 76.2705 130.36 76.2705 129 76.2705C129 75.2805 129 74.2905 129 73.2705C127.68 73.2705 126.36 73.2705 125 73.2705C125 74.2605 125 75.2505 125 76.2705C123.68 76.2705 122.36 76.2705 121 76.2705C121 75.6105 121 74.9505 121 74.2705C119.68 74.2705 118.36 74.2705 117 74.2705C117 74.9305 117 75.5905 117 76.2705C115.68 76.2705 114.36 76.2705 113 76.2705C112.34 75.2805 111.68 74.2905 111 73.2705C103.634 68.3542 95.425 68.9558 86.9766 69.2276C83 69.2705 83 69.2705 81.0525 68.7749C78.6818 68.1924 76.623 68.1904 74.1836 68.2432C73.2597 68.2567 72.3357 68.2703 71.3838 68.2842C70.4115 68.3003 69.4392 68.3164 68.4375 68.333C61.5237 68.4003 55.0844 68.25 48.3125 66.7198C43.0078 65.6893 37.684 66.0092 32.375 66.833C28.3156 67.3593 25.0334 66.9074 21 66.2705C21 66.9305 21 67.5905 21 68.2705C19.68 68.2705 18.36 68.2705 17 68.2705C16.67 67.2805 16.34 66.2905 16 65.2705C12.8195 64.0467 12.8195 64.0467 9.0625 63.1455C2.08994 61.3155 2.08994 61.3155 0 60.2705C0.33 57.6306 0.66 54.9906 1 52.2705C1.99 52.2705 2.98 52.2705 4 52.2705C3.97937 51.0331 3.95875 49.7956 3.9375 48.5205C3.96836 42.6777 3.96836 42.6777 5 40.2705C5.68062 39.6105 6.36125 38.9506 7.0625 38.2705C9.46386 36.2558 9.46386 36.2558 9 32.2705C12.96 31.9405 16.92 31.6105 21 31.2705C21.33 29.9505 21.66 28.6305 22 27.2705C22.6667 24.9372 23.3333 22.6039 24 20.2705C24.0593 19.5848 24.1186 18.899 24.1797 18.1924C25 16.2705 25 16.2705 27.6953 15.0049C33.6524 13.2951 38.8044 11.8751 45 12.2705C47.3104 11.842 47.3104 11.842 49 11.2705C49 10.2805 49 9.29055 49 8.27055C50.32 8.27055 51.64 8.27055 53 8.27055C53 6.95055 53 5.63055 53 4.27055C63.771 2.04641 74.202 0.729795 85.1982 0.155802Z" fill="#F5F9F5"/>
<path d="M85.1982 0.155802C97.3075 -0.446865 105.413 0.3737 114.938 8.52055C115.462 9.0207 115.987 9.52086 116.527 10.0362C118.1 11.5078 118.1 11.5078 121 12.2705C121.721 14.0071 122.438 15.7453 123.121 17.4971C124.466 20.2098 126.564 21.5472 129 23.2705C129.566 23.9099 130.132 24.5493 130.715 25.208C133.56 27.7762 136.574 28.8361 140.125 30.083C148.52 33.2419 155.196 37.4668 161.562 43.833C166.554 48.412 172.942 49.9951 179.27 52.0088C183 53.2705 183 53.2705 186 55.2705C186 56.2606 186 57.2505 186 58.2705C182.275 59.9731 179.266 60.5066 175.188 60.6455C170.254 60.9656 167.113 61.9578 162.891 64.4151C159.593 65.907 156.559 65.5248 153 65.2705C153 66.2605 153 67.2505 153 68.2705C152.01 68.2705 151.02 68.2705 150 68.2705C149.67 69.2605 149.34 70.2505 149 71.2705C143.923 73.614 138.504 73.8572 133 74.2705C133 74.9305 133 75.5905 133 76.2705C131.68 76.2705 130.36 76.2705 129 76.2705C129 75.2805 129 74.2905 129 73.2705C127.68 73.2705 126.36 73.2705 125 73.2705C125 74.2605 125 75.2505 125 76.2705C123.68 76.2705 122.36 76.2705 121 76.2705C121 75.6105 121 74.9505 121 74.2705C119.68 74.2705 118.36 74.2705 117 74.2705C117 74.9305 117 75.5905 117 76.2705C115.68 76.2705 114.36 76.2705 113 76.2705C112.34 75.2805 111.68 74.2905 111 73.2705C103.634 68.3542 95.425 68.9558 86.9766 69.2276C83 69.2705 83 69.2705 81.0525 68.7749C78.6818 68.1924 76.623 68.1904 74.1836 68.2432C73.2597 68.2567 72.3357 68.2703 71.3838 68.2842C70.4115 68.3003 69.4392 68.3164 68.4375 68.333C61.5237 68.4003 55.0844 68.25 48.3125 66.7198C43.0078 65.6893 37.684 66.0092 32.375 66.833C28.3156 67.3593 25.0334 66.9074 21 66.2705C21 66.9305 21 67.5905 21 68.2705C19.68 68.2705 18.36 68.2705 17 68.2705C16.67 67.2805 16.34 66.2905 16 65.2705C12.8195 64.0467 12.8195 64.0467 9.0625 63.1455C2.08994 61.3155 2.08994 61.3155 0 60.2705C0.33 57.6306 0.66 54.9906 1 52.2705C1.99 52.2705 2.98 52.2705 4 52.2705C3.97937 51.0331 3.95875 49.7956 3.9375 48.5205C3.96836 42.6777 3.96836 42.6777 5 40.2705C5.68062 39.6105 6.36125 38.9506 7.0625 38.2705C9.46386 36.2558 9.46386 36.2558 9 32.2705C12.96 31.9405 16.92 31.6105 21 31.2705C21.33 29.9505 21.66 28.6305 22 27.2705C22.6667 24.9372 23.3333 22.6039 24 20.2705C24.0593 19.5848 24.1186 18.899 24.1797 18.1924C25 16.2705 25 16.2705 27.6953 15.0049C33.6524 13.2951 38.8044 11.8751 45 12.2705C47.3104 11.842 47.3104 11.842 49 11.2705C49 10.2805 49 9.29055 49 8.27055C50.32 8.27055 51.64 8.27055 53 8.27055C53 6.95055 53 5.63055 53 4.27055C63.771 2.04641 74.202 0.729795 85.1982 0.155802ZM83.4688 2.31352C72.952 2.69651 62.9674 4.18031 54.3125 10.7705C52.0328 13.2351 50.9167 15.062 50 18.2705C48.2984 17.7755 48.2984 17.7755 46.5625 17.2705C40.4187 15.7699 35.2852 15.2282 29.4375 17.8955C26.6573 20.0603 26.6573 20.0603 26.875 23.333C26.9163 24.3024 26.9575 25.2718 27 26.2705C25.0625 27.8955 25.0625 27.8955 23 29.2705C22.9136 29.8957 22.8273 30.5209 22.7383 31.1651C22 33.2705 22 33.2705 19.3828 34.8682C18.3077 35.3516 17.2327 35.835 16.125 36.333C10.9604 38.5049 10.9604 38.5049 7 42.2705C6.42676 44.5422 6.42676 44.5422 6.3125 46.958C6.24676 47.7663 6.18102 48.5745 6.11328 49.4073C6.0759 50.0222 6.03852 50.637 6 51.2705C6.66 51.2705 7.32 51.2705 8 51.2705C6.02 53.9105 4.04 56.5505 2 59.2705C10.7317 62.0125 18.1986 64.2192 26.8125 60.2705C27.5202 59.8993 28.2279 59.528 28.957 59.1455C31 58.2705 31 58.2705 35 58.2705C35 58.9305 35 59.5905 35 60.2705C42.9701 63.6264 48.629 64.1135 57 61.2705C58.3535 60.6459 59.6993 59.9989 61 59.2705C61.3094 59.9099 61.6188 60.5493 61.9375 61.208C62.8345 63.2067 62.8345 63.2067 64 64.2705C76.9435 65.8309 89.637 61.0347 101 55.2705C101.66 55.9305 102.32 56.5905 103 57.2705C107.59 58.8991 112.68 58.5965 117.492 58.794C121.24 59.3032 123.7 60.4795 127 62.2705C131.087 62.8665 132.48 62.6434 135.875 60.208C139.337 58.0618 140.626 58.1683 144.516 58.8995C147.773 59.386 150.958 59.4273 154.25 59.458C155.431 59.4722 156.612 59.4864 157.828 59.501C160.886 59.495 160.886 59.495 162.875 58.2666C166.354 56.6357 169.963 57.0639 173.75 57.1455C174.939 57.1591 174.939 57.1591 176.152 57.1729C178.102 57.1964 180.051 57.2323 182 57.2705C182.33 56.6105 182.66 55.9506 183 55.2705C181.745 54.9418 181.745 54.9418 180.465 54.6065C173.007 52.5747 165.922 50.1928 158.801 47.2017C155.514 45.7493 155.514 45.7493 152 45.2705C152 44.6105 152 43.9506 152 43.2705C152.99 42.9405 153.98 42.6105 155 42.2705C150.656 37.1148 145.528 34.9053 139.438 32.208C137.558 31.3712 135.681 30.5264 133.809 29.6729C132.982 29.3067 132.155 28.9405 131.302 28.5633C128.743 27.1265 127.05 25.3492 125 23.2705C124.34 23.2705 123.68 23.2705 123 23.2705C122.814 22.6105 122.629 21.9505 122.438 21.2705C119.17 14.4524 113.314 8.19965 106.1 5.58085C104.056 4.99534 102.01 4.49276 99.9375 4.02055C99.2433 3.84781 98.5492 3.67508 97.834 3.49711C92.8548 2.3055 88.5364 2.25185 83.4688 2.31352Z" fill="#020202"/>
<path d="M85.1982 0.155802C97.3075 -0.446865 105.413 0.3737 114.938 8.52055C115.462 9.0207 115.987 9.52086 116.527 10.0362C118.1 11.5078 118.1 11.5078 121 12.2705C121.721 14.0071 122.438 15.7453 123.121 17.4971C124.466 20.2098 126.564 21.5472 129 23.2705C129.566 23.9099 130.132 24.5493 130.715 25.208C133.56 27.7762 136.574 28.8361 140.125 30.083C148.596 33.2705 155.258 37.627 161.812 43.8955C166.069 47.8019 170.91 49.3594 176.34 51.1299C177.218 51.5063 178.096 51.8827 179 52.2705C179.33 53.2606 179.66 54.2505 180 55.2705C170.209 53.0501 161.195 49.2051 152 45.2705C152 43.2705 152 43.2705 154 41.2705C147.421 37.0954 140.652 33.5079 133.623 30.1631C127.585 27.236 123.313 24.1711 119.688 18.3955C113.659 9.67378 106.95 5.98792 96.625 3.90336C83.7404 1.82501 69.5268 2.83009 58 9.27055C54.3344 11.9503 52.1267 14.241 50 18.2705C48.8656 18.1055 47.7313 17.9405 46.5625 17.7705C38.1493 16.7531 38.1493 16.7531 29.9375 18.333C27.6024 20.2516 27.6024 20.2516 27.6875 23.958C27.7906 25.0512 27.8937 26.1443 28 27.2705C27.3813 27.4974 26.7625 27.7243 26.125 27.958C23.7716 29.0928 23.7716 29.0928 23.2422 31.6534C21.5418 35.236 19.5707 35.8572 16 37.458C11.6505 39.3584 11.6505 39.3584 8 42.2705C7.32349 44.4676 7.32349 44.4676 6.875 46.8955C6.70742 47.7128 6.53984 48.5301 6.36719 49.3721C6.24602 49.9986 6.12484 50.6251 6 51.2705C6.66 51.2705 7.32 51.2705 8 51.2705C6.6141 54.3622 5.50816 55.7624 3 58.2705C10.92 60.2505 10.92 60.2505 19 62.2705C17 64.2706 17 64.2705 15.1172 64.3526C9.66202 63.6968 5.07223 62.3917 0 60.2705C0.33 57.6306 0.66 54.9906 1 52.2705C1.99 52.2705 2.98 52.2705 4 52.2705C3.97937 51.0331 3.95875 49.7956 3.9375 48.5205C3.96836 42.6777 3.96836 42.6777 5 40.2705C5.68062 39.6105 6.36125 38.9506 7.0625 38.2705C9.46386 36.2558 10.4639 36.9853 10 33C13.96 32.67 16.92 31.6105 21 31.2705C21.33 29.9505 21.66 28.6305 22 27.2705C22.6667 24.9372 23.3333 22.6039 24 20.2705C24.0593 19.5848 24.1186 18.899 24.1797 18.1924C25 16.2705 25 16.2705 27.6953 15.0049C33.6524 13.2951 38.8044 11.8751 45 12.2705C47.3104 11.842 47.3104 11.842 49 11.2705C49 10.2805 49 9.29055 49 8.27055C50.32 8.27055 51.64 8.27055 53 8.27055C53 6.95055 53 5.63055 53 4.27055C63.771 2.04641 74.202 0.729795 85.1982 0.155802Z" fill="#0B0C0B"/>
<path d="M22 30.2705C22.33 31.2605 22.66 32.2505 23 33.2705C21.6271 33.9937 21.6271 33.9937 20.2266 34.7314C19.0259 35.3693 17.8254 36.0073 16.625 36.6455C16.0217 36.9626 15.4184 37.2797 14.7969 37.6064C12.2145 38.9837 10.0817 40.1888 8 42.2705C7.32349 44.4676 7.32349 44.4676 6.875 46.8955C6.62363 48.1214 6.62363 48.1214 6.36719 49.3721C6.24602 49.9986 6.12484 50.625 6 51.2705C6.66 51.2705 7.32 51.2705 8 51.2705C6.6141 54.3621 5.50816 55.7623 3 58.2705C10.92 60.2505 10.92 60.2505 19 62.2705C17 64.2705 17 64.2705 15.1172 64.3525C9.66202 63.6968 5.07223 62.3916 0 60.2705C0.33 57.6305 0.66 54.9905 1 52.2705C1.99 52.2705 1.98 51 3 51C2.97937 49.7625 3.95875 49.7955 3.9375 48.5205C3.96836 42.6777 3.96836 42.6777 5 40.2705C5.68062 39.6105 6.36125 38.9505 7.0625 38.2705C9.46386 36.2558 10.9639 37.9853 10.5 34C11.782 33.9091 10.282 32.1796 11.5898 32.0869C13.2469 31.9612 13.2469 31.9612 14.9375 31.833C16.0396 31.7518 17.1418 31.6706 18.2773 31.5869C20.9111 31.5663 20.9111 31.5663 22 30.2705Z" fill="#0F0D0F"/>
<path d="M28 15.2705C28.66 15.6005 29.32 15.9305 30 16.2705C29.67 16.7861 29.34 17.3018 29 17.833C27.7512 20.3821 27.7512 20.3821 28.1875 23.833C28.1256 24.9674 28.0637 26.1018 28 27.2705C25.625 29.083 25.625 29.083 23 30.2705C22.34 30.9305 21.68 31.5905 21 32.2705C21.7428 28.185 22.8406 24.2559 24 20.2705C24.1444 19.4868 24.2887 18.703 24.4375 17.8955C24.6231 17.3593 24.8087 16.823 25 16.2705C25.99 15.9405 26.98 15.6105 28 15.2705Z" fill="#020102"/>
<path d="M22 30.2705C22.33 31.2605 22.66 32.2505 23 33.2705C18.638 35.7175 14.9731 36.7732 10 37.2705C9.67002 35.6205 9.84 35.7 9.5 34C10.3546 33.9394 10.7093 32.1493 11.5899 32.0869C13.247 31.9612 13.247 31.9612 14.9375 31.833C16.0397 31.7518 17.1418 31.6706 18.2774 31.5869C20.9111 31.5663 20.9111 31.5663 22 30.2705Z" fill="#0D0E0D"/>
<path d="M119 16.2705C122 16.2705 122 16.2705 124.438 18.458C127 21.2705 127 21.2705 128.938 23.8955C131.34 26.662 133.663 27.8294 137 29.2705C136.67 29.9305 136.34 30.5905 136 31.2705C128.014 27.5448 123.116 24.1977 119 16.2705Z" fill="#131413"/>
<path d="M149 56.2705C154.28 56.2705 159.56 56.2705 165 56.2705C160.465 59.6715 159.209 59.6096 153.75 59.458C152.487 59.4309 151.223 59.4039 149.922 59.376C148.958 59.3412 147.993 59.3064 147 59.2705C147.66 58.9405 148.32 58.6105 149 58.2705C149 57.6105 149 56.9505 149 56.2705Z" fill="#D9E0D9"/>
<path d="M81 1.27066C78.2338 4.03689 75.9658 3.96171 72.125 4.52066C70.2726 4.80683 70.2726 4.80683 68.3828 5.09879C65.0665 5.26728 63.7012 5.08959 61 3.27066C67.7589 1.19101 73.9556 1.05933 81 1.27066Z" fill="#030303"/>
<path d="M109 5.27051C112.984 6.59839 115.106 8.28036 118 11.2705C118.99 11.6005 119.98 11.9305 121 12.2705C121 13.5905 121 14.9105 121 16.2705C117.813 14.8349 115.378 13.0678 112.75 10.7705C112.044 10.1621 111.337 9.55363 110.609 8.92676C109 7.27051 109 7.27051 109 5.27051Z" fill="#050605"/>
<path d="M5 43.2705C6.36421 45.9989 5.87807 47.88 5.5625 50.8955C5.46066 51.8984 5.35883 52.9013 5.25391 53.9346C5.17012 54.7054 5.08633 55.4763 5 56.2705C3.68 56.2705 2.36 56.2705 1 56.2705C1 54.9505 1 53.6305 1 52.2705C1.99 52.2705 2.98 52.2705 4 52.2705C3.97937 50.9711 3.95875 49.6718 3.9375 48.333C3.91601 46.9789 3.92852 45.6229 4 44.2705C4.33 43.9405 4.66 43.6105 5 43.2705Z" fill="#030303"/>
<path d="M9 48C9.66 48.33 10.32 48.66 11 49C10.5256 49.3713 10.0512 49.7425 9.5625 50.125C7.47794 52.6265 7.35379 54.8159 7 58C6.01 58 5.02 58 4 58C5.85714 50.4286 5.85714 50.4286 9 48Z" fill="#E6E9E6"/>
<path d="M154 40.2705C154.99 40.2705 155.98 40.2705 157 40.2705C157 42.2505 157 44.2305 157 46.2705C155.35 45.9405 153.7 45.6105 152 45.2705C152 43.2705 152 43.2705 154 41.2705C154 40.9405 154 40.6105 154 40.2705Z" fill="#171717"/>
<path d="M122.625 56.1455C123.409 56.1868 124.193 56.228 125 56.2705C125 57.5905 125 58.9105 125 60.2705C122.69 59.6105 120.38 58.9505 118 58.2705C120 56.2705 120 56.2705 122.625 56.1455Z" fill="#E3EAE3"/>
<path d="M150 35.2705C153.465 37.2505 153.465 37.2505 157 39.2705C155.25 40.0205 155.25 40.0205 153 40.2705C150.75 38.333 150.75 38.333 149 36.2705C149.33 35.9405 149.66 35.6105 150 35.2705Z" fill="#040204"/>
<path d="M140 57.2705C142.31 57.6005 144.62 57.9305 147 58.2705C145 60.2705 145 60.2705 141.375 60.3955C140.261 60.3543 139.148 60.313 138 60.2705C138.66 59.2805 139.32 58.2905 140 57.2705Z" fill="#151415"/>
</svg>
