<svg width="146" height="64" viewBox="0 0 146 64" fill="none" xmlns="http://www.w3.org/2000/svg">
<path d="M83 5.66425C84.32 5.66425 85.64 5.66425 87 5.66425C87 6.98425 87 8.30425 87 9.66425C88.32 9.66425 89.64 9.66425 91 9.66425C91 10.6543 91 11.6443 91 12.6643C92.9491 12.8189 92.9491 12.8189 94.9375 12.9768C99.1996 13.4391 102.916 14.5161 106.93 15.9846C109.167 16.7967 109.167 16.7967 112.312 17.0393C115.966 17.8888 116.862 19.6711 119 22.6643C119.743 23.2211 120.485 23.778 121.25 24.3518C121.827 24.7849 122.405 25.218 123 25.6643C123 26.3243 123 26.9843 123 27.6643C123.598 27.9324 124.196 28.2005 124.812 28.4768C127 29.6643 127 29.6643 128.438 31.2268C130.492 33.1169 132.28 33.2967 135 33.6643C135 34.9843 135 36.3043 135 37.6643C134.34 37.6643 133.68 37.6643 133 37.6643C133.916 40.0472 133.916 40.0472 137.25 40.9768C141.004 42.5015 143.398 44.5102 146 47.6643C146 48.6543 146 49.6443 146 50.6643C141.05 50.6643 136.1 50.6643 131 50.6643C131 51.6543 131 52.6443 131 53.6643C129.68 53.6643 128.36 53.6643 127 53.6643C127 53.0043 127 52.3443 127 51.6643C125.68 51.6643 124.36 51.6643 123 51.6643C123 52.3243 123 52.9843 123 53.6643C117.06 54.6543 117.06 54.6543 111 55.6643C111 56.3243 111 56.9843 111 57.6643C109.68 57.6643 108.36 57.6643 107 57.6643C107 57.0043 107 56.3443 107 55.6643C106.01 55.6643 105.02 55.6643 104 55.6643C103.505 56.6543 103.505 56.6543 103 57.6643C101.68 57.6643 100.36 57.6643 99 57.6643C99 57.0043 99 56.3443 99 55.6643C98.2162 56.283 97.4325 56.9018 96.625 57.5393C90.2739 61.7435 82.6212 61.9139 75.2266 61.6369C73.0606 61.5663 73.0606 61.5663 71.2898 62.1511C66.2729 63.2755 60.9773 62.931 55.8503 62.9594C54.428 62.9708 53.0058 62.9911 51.5837 63.0209C27.2203 63.5314 27.2203 63.5314 19.7878 56.6018C18.9029 55.6427 18.9029 55.6427 18 54.6643C14.6623 53.3606 14.6623 53.3606 11 52.4768C9.78312 52.1532 8.56625 51.8296 7.3125 51.4963C6.21938 51.2217 5.12625 50.9471 4 50.6643C3.19563 50.4619 2.39125 50.2595 1.5625 50.051C0.789062 49.8595 0.789062 49.8595 0 49.6643C1 46.6643 1 46.6643 3.8125 45.2268C4.86438 44.7111 5.91625 44.1955 7 43.6643C9.31418 41.6026 9.31418 41.6026 11 39.6643C10.505 38.1793 10.505 38.1793 10 36.6643C11.0828 36.0455 11.0828 36.0455 12.1875 35.4143C16.6128 32.6608 19.7184 30.6072 21.875 25.7893C24.5223 20.0211 29.1848 16.1334 35 13.6643C35.99 13.6643 36.98 13.6643 38 13.6643C38.2269 12.9424 38.4538 12.2205 38.6875 11.4768C40.502 7.58855 42.8026 4.60269 46.8562 2.87153C48.9763 2.24031 51.0841 1.73838 53.25 1.28925C54.39 1.04175 54.39 1.04175 55.553 0.789254C65.9592 -1.31541 73.5739 0.951219 83 5.66425Z" fill="#F5F9F5"/>
<path d="M83 5.66425C84.32 5.66425 85.64 5.66425 87 5.66425C87 6.98425 87 8.30425 87 9.66425C88.32 9.66425 89.64 9.66425 91 9.66425C91 10.6543 91 11.6443 91 12.6643C92.9491 12.8189 92.9491 12.8189 94.9375 12.9768C99.1996 13.4391 102.916 14.5161 106.93 15.9846C109.167 16.7967 109.167 16.7967 112.312 17.0393C115.966 17.8888 116.862 19.6711 119 22.6643C119.743 23.2211 120.485 23.778 121.25 24.3518C121.827 24.7849 122.405 25.218 123 25.6643C123 26.3243 123 26.9843 123 27.6643C123.598 27.9324 124.196 28.2005 124.812 28.4768C127 29.6643 127 29.6643 128.438 31.2268C130.492 33.1169 132.28 33.2967 135 33.6643C135 34.9843 135 36.3043 135 37.6643C134.34 37.6643 133.68 37.6643 133 37.6643C133.916 40.0472 133.916 40.0472 137.25 40.9768C141.004 42.5015 143.398 44.5102 146 47.6643C146 48.6543 146 49.6443 146 50.6643C141.05 50.6643 136.1 50.6643 131 50.6643C131 51.6543 131 52.6443 131 53.6643C129.68 53.6643 128.36 53.6643 127 53.6643C127 53.0043 127 52.3443 127 51.6643C125.68 51.6643 124.36 51.6643 123 51.6643C123 52.3243 123 52.9843 123 53.6643C117.06 54.6543 117.06 54.6543 111 55.6643C111 56.3243 111 56.9843 111 57.6643C109.68 57.6643 108.36 57.6643 107 57.6643C107 57.0043 107 56.3443 107 55.6643C106.01 55.6643 105.02 55.6643 104 55.6643C103.505 56.6543 103.505 56.6543 103 57.6643C101.68 57.6643 100.36 57.6643 99 57.6643C99 57.0043 99 56.3443 99 55.6643C98.2162 56.283 97.4325 56.9018 96.625 57.5393C90.2739 61.7435 82.6212 61.9139 75.2266 61.6369C73.0606 61.5663 73.0606 61.5663 71.2898 62.1511C66.2729 63.2755 60.9773 62.931 55.8503 62.9594C54.428 62.9708 53.0058 62.9911 51.5837 63.0209C27.2203 63.5314 27.2203 63.5314 19.7878 56.6018C18.9029 55.6427 18.9029 55.6427 18 54.6643C14.6623 53.3606 14.6623 53.3606 11 52.4768C9.78312 52.1532 8.56625 51.8296 7.3125 51.4963C6.21938 51.2217 5.12625 50.9471 4 50.6643C3.19563 50.4619 2.39125 50.2595 1.5625 50.051C0.789062 49.8595 0.789062 49.8595 0 49.6643C1 46.6643 1 46.6643 3.8125 45.2268C4.86438 44.7111 5.91625 44.1955 7 43.6643C9.31418 41.6026 9.31418 41.6026 11 39.6643C10.505 38.1793 10.505 38.1793 10 36.6643C11.0828 36.0455 11.0828 36.0455 12.1875 35.4143C16.6128 32.6608 19.7184 30.6072 21.875 25.7893C24.5223 20.0211 29.1848 16.1334 35 13.6643C35.99 13.6643 36.98 13.6643 38 13.6643C38.2269 12.9424 38.4538 12.2205 38.6875 11.4768C40.502 7.58855 42.8026 4.60269 46.8562 2.87153C48.9763 2.24031 51.0841 1.73838 53.25 1.28925C54.39 1.04175 54.39 1.04175 55.553 0.789254C65.9592 -1.31541 73.5739 0.951219 83 5.66425ZM44.1875 8.10175C43.1047 9.37019 43.1047 9.37019 42 10.6643C39.4066 13.6282 36.9817 15.2302 33.5 16.9768C27.9834 19.9208 26.1864 23.2744 24.125 29.1643C22.9962 31.6727 21.8307 33.0809 20 35.1018C17.3066 38.0973 15.9678 40.6961 15 44.6643C16.98 44.9943 18.96 45.3243 21 45.6643C21.1018 46.2611 21.2037 46.8579 21.3086 47.4728C22.3858 50.8871 24.3639 52.229 27.2227 54.2658C30.7056 56.0195 34.1978 56.8755 38 57.6018C38.9959 57.7943 38.9959 57.7943 40.012 57.9907C46.3245 59.0256 52.5882 58.786 58.4375 55.9143C59.0962 55.61 59.7549 55.3058 60.4336 54.9924C62.6175 53.1407 62.6743 51.4346 63 48.6643C64.4115 48.7687 64.4115 48.7687 65.8516 48.8752C72.7131 49.4705 72.7131 49.4705 79.0195 47.3986C80.4506 45.8145 80.4506 45.8145 81.6914 44.133C83.9712 41.5742 86.726 41.319 90 40.6643C90 40.0043 90 39.3443 90 38.6643C90.9262 39.3874 90.9262 39.3874 91.8711 40.1252C92.718 40.7568 93.5649 41.3885 94.4375 42.0393C95.6731 42.979 95.6731 42.979 96.9336 43.9377C105.458 48.7372 115.066 47.9082 124.562 47.7893C125.967 47.7792 127.371 47.7701 128.775 47.7619C132.184 47.7385 135.592 47.7057 139 47.6643C138.339 44.6003 138.339 44.6003 136.18 43.5666C131.501 41.6079 126.917 39.9196 122 38.6643C122.082 37.6536 122.165 36.643 122.25 35.6018C121.961 31.0555 121.028 28.0236 118 24.6643C111.566 19.9335 105.238 16.7016 97.2263 16.1335C86.7211 15.3499 86.7211 15.3499 82.9375 11.2893C82.1969 10.3611 82.1969 10.3611 81.4414 9.41425C78.019 5.25909 73.2116 3.47905 68 2.66425C59.2648 2.02985 51.0468 2.15699 44.1875 8.10175Z" fill="#050505"/>
<path d="M63 1.66394C63 1.99394 63 2.32394 63 2.66394C62.0474 2.8457 61.0948 3.02746 60.1133 3.21472C58.859 3.46609 57.6048 3.71746 56.3125 3.97644C55.0711 4.22007 53.8298 4.46371 52.5508 4.71472C47.6778 6.0174 44.8591 7.27153 42.1875 11.6014C38.8307 16.301 34.3598 17.8774 29 19.6639C27.8498 21.9114 27.8498 21.9114 27 24.6639C26.6287 25.7571 26.2575 26.8502 25.875 27.9764C25.5863 28.8633 25.2975 29.7502 25 30.6639C23 29.6639 23 29.6639 22 27.5389C22 23.5995 23.5476 22.1182 26.1758 19.3124C29.6685 16.1562 33.1565 13.6639 38 13.6639C38.2269 12.9421 38.4538 12.2202 38.6875 11.4764C40.3273 7.96262 41.972 6.09954 45 3.66394C51.0342 1.51618 56.64 1.42935 63 1.66394Z" fill="#0E0F0E"/>
<path d="M95 13.6641C100.875 13.968 105.578 15.4371 111 17.6641C110.67 18.6541 110.34 19.6441 110 20.6641C108.577 19.9834 108.577 19.9834 107.125 19.2891C102.576 17.3182 97.865 16.4961 93 15.6641C93.66 15.0041 94.32 14.3441 95 13.6641Z" fill="#171817"/>
<path d="M135 43.6641C136.32 44.3241 137.64 44.9841 139 45.6641C139 46.3241 139 46.9841 139 47.6641C132.234 47.7779 125.712 47.5443 119 46.6641C119 46.3341 119 46.0041 119 45.6641C124.28 45.6641 129.56 45.6641 135 45.6641C135 45.0041 135 44.3441 135 43.6641Z" fill="#D9DDD9"/>
<path d="M87 9.66406C88.32 9.66406 89.64 9.66406 91 9.66406C91 10.6541 91 11.6441 91 12.6641C92.98 12.6641 94.96 12.6641 97 12.6641C95.375 14.2891 95.375 14.2891 93 15.6641C89.75 14.8516 89.75 14.8516 87 13.6641C87 12.3441 87 11.0241 87 9.66406Z" fill="black"/>
<path d="M82 9.66406C83.65 9.66406 85.3 9.66406 87 9.66406C87 10.9841 87 12.3041 87 13.6641C88.65 13.9941 90.3 14.3241 92 14.6641C92 14.9941 92 15.3241 92 15.6641C89.8125 16.0391 89.8125 16.0391 87 15.6641C85.0098 13.8244 83.6101 11.8722 82 9.66406Z" fill="#131413"/>
<path d="M96 41.6641C98.31 41.6641 100.62 41.6641 103 41.6641C103 42.9841 103 44.3041 103 45.6641C99.7305 45.1003 98.1742 44.1644 96 41.6641Z" fill="#DAE0DA"/>
<path d="M119 46.6641C119 47.6541 119 48.6441 119 49.6641C116.36 49.6641 113.72 49.6641 111 49.6641C111 49.0041 111 48.3441 111 47.6641C116.75 46.6641 116.75 46.6641 119 46.6641Z" fill="#100F10"/>
<path d="M111 17.6641C112.32 17.6641 113.64 17.6641 115 17.6641C115.66 18.9841 116.32 20.3041 117 21.6641C115.35 21.6641 113.7 21.6641 112 21.6641C111.67 20.3441 111.34 19.0241 111 17.6641Z" fill="#030303"/>
<path d="M59 2.66406C59 3.65406 59 4.64406 59 5.66406C56.69 5.66406 54.38 5.66406 52 5.66406C52 5.00406 52 4.34406 52 3.66406C54.4906 2.97699 56.3789 2.66406 59 2.66406Z" fill="#E6EBE6"/>
</svg>
