<svg width="339" height="130" viewBox="0 0 339 130" fill="none" xmlns="http://www.w3.org/2000/svg">
<path d="M137.016 2.37262C137.016 1.71262 137.016 1.05262 137.016 0.372616C138.336 0.372616 139.656 0.372616 141.016 0.372616C141.016 1.36262 141.016 2.35262 141.016 3.37262C143.945 3.56793 143.945 3.56793 146.875 3.76324C149.772 4.58803 150.971 6.19049 153.016 8.37262C157.417 11.7342 161.983 14.8721 166.828 17.5601C169.85 19.2783 172.445 21.0354 175.016 23.3726C175.016 24.0326 175.016 24.6926 175.016 25.3726C178.316 25.0426 181.616 24.7126 185.016 24.3726C185.016 25.0326 185.016 25.6926 185.016 26.3726C186.15 26.6266 187.284 26.8805 188.453 27.1421C189.974 27.4895 191.495 27.8372 193.016 28.1851C193.759 28.3508 194.503 28.5164 195.27 28.6871C201.32 30.0812 206.928 32.0492 212.641 34.4976C215.407 35.5168 218.102 35.966 221.016 36.3726C221.016 37.3626 221.016 38.3526 221.016 39.3726C221.717 39.4757 222.418 39.5789 223.141 39.6851C226.409 40.4667 229.016 41.8729 232.016 43.3726C234.751 44.0717 234.751 44.0717 237.016 44.3726C237.016 45.3626 237.016 46.3526 237.016 47.3726C237.896 47.4757 238.776 47.5789 239.684 47.6851C244.071 48.5903 247.173 50.6544 250.941 52.9976C258.294 56.2863 266.741 55.4755 274.641 55.3726C290.617 55.1662 290.617 55.1662 297.797 58.5601C300.831 59.6712 303.903 60.1606 307.078 60.7476C312.885 61.9375 316.14 62.868 320.016 67.3726C320.531 68.4245 321.047 69.4764 321.578 70.5601C322.759 73.5649 322.759 73.5649 325.578 74.6226C326.785 74.9939 326.785 74.9939 328.016 75.3726C328.676 76.0326 329.336 76.6926 330.016 77.3726C332.066 78.1735 334.14 78.8297 336.238 79.4937C336.825 79.7838 337.411 80.0738 338.016 80.3726C339.223 83.9959 338.559 85.0141 337.016 88.3726C334.724 88.229 332.432 88.0826 330.141 87.9351C329.457 87.8929 328.773 87.8507 328.068 87.8072C324.186 87.557 320.366 87.165 316.516 86.6226C311.831 86.1151 309.107 87.0714 305.016 89.3726C302.875 91.2107 302.875 91.2107 302.266 93.6851C300.238 98.0454 297.345 100.489 292.926 102.166C285.336 104.047 277.707 103.132 270.016 102.373C269.686 103.033 269.356 103.693 269.016 104.373C267.696 104.373 266.376 104.373 265.016 104.373C265.016 103.713 265.016 103.053 265.016 102.373C263.696 102.373 262.376 102.373 261.016 102.373C261.016 103.033 261.016 103.693 261.016 104.373C258.376 104.373 255.736 104.373 253.016 104.373C253.016 103.713 253.016 103.053 253.016 102.373C251.696 102.043 250.376 101.713 249.016 101.373C249.016 102.363 249.016 103.353 249.016 104.373C247.696 104.373 246.376 104.373 245.016 104.373C244.686 103.383 244.356 102.393 244.016 101.373C237.833 99.3117 231.999 100.175 226.016 102.373C225.686 103.033 225.356 103.693 225.016 104.373C223.757 104.62 222.499 104.868 221.203 105.123C217.736 105.908 217.223 106.088 215.016 109.123C214.356 110.195 213.696 111.268 213.016 112.373C206.255 118.373 206.255 118.373 203.016 118.373C203.016 119.136 203.016 119.899 203.016 120.685C202.686 121.572 202.356 122.459 202.016 123.373C195.991 126.129 190.048 127.232 183.516 128.123C182.168 128.33 182.168 128.33 180.793 128.541C175.27 129.32 170.5 129.484 165.016 128.373C164.356 127.713 163.696 127.053 163.016 126.373C160.709 125.934 160.709 125.934 157.891 125.81C156.741 125.735 155.591 125.661 154.406 125.584C150.959 125.404 147.512 125.28 144.062 125.162C143.007 125.124 141.951 125.086 140.864 125.047C138.745 124.973 136.626 124.908 134.507 124.853C126.913 124.598 120.62 123.141 113.578 120.248C112.713 119.894 111.848 119.541 110.957 119.177C110.316 118.912 109.676 118.646 109.016 118.373C109.016 119.033 109.016 119.693 109.016 120.373C107.696 120.373 106.376 120.373 105.016 120.373C105.016 119.383 105.016 118.393 105.016 117.373C104.026 117.868 104.026 117.868 103.016 118.373C99.1878 118.617 95.3504 118.558 91.5156 118.56C89.9378 118.578 89.9378 118.578 88.3281 118.597C78.1624 118.616 69.9372 117.329 61.0156 112.373C61.0156 111.383 61.0156 110.393 61.0156 109.373C60.335 109.263 59.6544 109.153 58.9531 109.041C50.9388 107.73 42.9464 106.317 34.9775 104.755C33.1041 104.39 31.2278 104.039 29.3515 103.689C22.7577 102.348 18.0478 100.937 13.0156 96.3726C13.0156 95.7126 13.0156 95.0526 13.0156 94.3726C11.7987 94.2901 10.5819 94.2076 9.3281 94.1226C5.17846 93.5615 2.67776 92.8077 0.0156003 89.3726C-0.0912882 86.2729 0.362924 83.3969 1.0156 80.3726C3.6556 80.0426 6.2956 79.7126 9.0156 79.3726C9.09423 78.6224 9.17287 77.8722 9.25388 77.0992C10.2023 73.7042 11.3912 72.8107 14.2031 70.7476C15.0165 70.1431 15.8299 69.5385 16.6679 68.9156C19.0156 67.3726 19.0156 67.3726 22.2656 66.0601C26.0659 63.7281 26.9287 60.767 28.7617 56.8023C32.4403 49.6743 40.9032 46.2302 48.0156 43.3726C51.5894 42.3387 55.2005 41.4878 58.8471 40.7532C60.5914 40.3825 62.3082 39.8871 64.0156 39.3726C64.3456 38.3826 64.6756 37.3926 65.0156 36.3726C66.0675 36.3932 67.1194 36.4139 68.2031 36.4351C71.9987 35.7917 71.9987 35.7917 73.4531 33.4781C74.6971 31.1339 75.8652 28.7639 77.0156 26.3726C80.444 21.0395 85.6513 17.6155 91.0156 14.3726C91.6756 14.3726 92.3356 14.3726 93.0156 14.3726C93.383 13.2318 93.383 13.2318 93.7578 12.0679C96.293 6.63538 102.555 3.83479 107.891 1.49762C117.217 -1.60493 127.6 0.83314 137.016 2.37262Z" fill="#F6FAF6"/>
<path d="M137.016 2.37262C137.016 1.71262 137.016 1.05262 137.016 0.372616C138.336 0.372616 139.656 0.372616 141.016 0.372616C141.016 1.36262 141.016 2.35262 141.016 3.37262C143.945 3.56793 143.945 3.56793 146.875 3.76324C149.772 4.58803 150.971 6.19049 153.016 8.37262C157.417 11.7342 161.983 14.8721 166.828 17.5601C169.85 19.2783 172.445 21.0354 175.016 23.3726C175.016 24.0326 175.016 24.6926 175.016 25.3726C178.316 25.0426 181.616 24.7126 185.016 24.3726C185.016 25.0326 185.016 25.6926 185.016 26.3726C186.15 26.6266 187.284 26.8805 188.453 27.1421C189.974 27.4895 191.495 27.8372 193.016 28.1851C193.759 28.3508 194.503 28.5164 195.27 28.6871C201.32 30.0812 206.928 32.0492 212.641 34.4976C215.407 35.5168 218.102 35.966 221.016 36.3726C221.016 37.3626 221.016 38.3526 221.016 39.3726C221.717 39.4757 222.418 39.5789 223.141 39.6851C226.409 40.4667 229.016 41.8729 232.016 43.3726C234.751 44.0717 234.751 44.0717 237.016 44.3726C237.016 45.3626 237.016 46.3526 237.016 47.3726C237.896 47.4757 238.776 47.5789 239.684 47.6851C244.071 48.5903 247.173 50.6544 250.941 52.9976C258.294 56.2863 266.741 55.4755 274.641 55.3726C290.617 55.1662 290.617 55.1662 297.797 58.5601C300.831 59.6712 303.903 60.1606 307.078 60.7476C312.885 61.9375 316.14 62.868 320.016 67.3726C320.531 68.4245 321.047 69.4764 321.578 70.5601C322.759 73.5649 322.759 73.5649 325.578 74.6226C326.785 74.9939 326.785 74.9939 328.016 75.3726C328.676 76.0326 329.336 76.6926 330.016 77.3726C332.066 78.1735 334.14 78.8297 336.238 79.4937C336.825 79.7838 337.411 80.0738 338.016 80.3726C339.223 83.9959 338.559 85.0141 337.016 88.3726C334.724 88.229 332.432 88.0826 330.141 87.9351C329.457 87.8929 328.773 87.8507 328.068 87.8072C324.186 87.557 320.366 87.165 316.516 86.6226C311.831 86.1151 309.107 87.0714 305.016 89.3726C302.875 91.2107 302.875 91.2107 302.266 93.6851C300.238 98.0454 297.345 100.489 292.926 102.166C285.336 104.047 277.707 103.132 270.016 102.373C269.686 103.033 269.356 103.693 269.016 104.373C267.696 104.373 266.376 104.373 265.016 104.373C265.016 103.713 265.016 103.053 265.016 102.373C263.696 102.373 262.376 102.373 261.016 102.373C261.016 103.033 261.016 103.693 261.016 104.373C258.376 104.373 255.736 104.373 253.016 104.373C253.016 103.713 253.016 103.053 253.016 102.373C251.696 102.043 250.376 101.713 249.016 101.373C249.016 102.363 249.016 103.353 249.016 104.373C247.696 104.373 246.376 104.373 245.016 104.373C244.686 103.383 244.356 102.393 244.016 101.373C237.833 99.3117 231.999 100.175 226.016 102.373C225.686 103.033 225.356 103.693 225.016 104.373C223.757 104.62 222.499 104.868 221.203 105.123C217.736 105.908 217.223 106.088 215.016 109.123C214.356 110.195 213.696 111.268 213.016 112.373C206.255 118.373 206.255 118.373 203.016 118.373C203.016 119.136 203.016 119.899 203.016 120.685C202.686 121.572 202.356 122.459 202.016 123.373C195.991 126.129 190.048 127.232 183.516 128.123C182.168 128.33 182.168 128.33 180.793 128.541C175.27 129.32 170.5 129.484 165.016 128.373C164.356 127.713 163.696 127.053 163.016 126.373C160.709 125.934 160.709 125.934 157.891 125.81C156.741 125.735 155.591 125.661 154.406 125.584C150.959 125.404 147.512 125.28 144.062 125.162C143.007 125.124 141.951 125.086 140.864 125.047C138.745 124.973 136.626 124.908 134.507 124.853C126.913 124.598 120.62 123.141 113.578 120.248C112.713 119.894 111.848 119.541 110.957 119.177C110.316 118.912 109.676 118.646 109.016 118.373C109.016 119.033 109.016 119.693 109.016 120.373C107.696 120.373 106.376 120.373 105.016 120.373C105.016 119.383 105.016 118.393 105.016 117.373C104.026 117.868 104.026 117.868 103.016 118.373C99.1878 118.617 95.3504 118.558 91.5156 118.56C89.9378 118.578 89.9378 118.578 88.3281 118.597C78.1624 118.616 69.9372 117.329 61.0156 112.373C61.0156 111.383 61.0156 110.393 61.0156 109.373C60.335 109.263 59.6544 109.153 58.9531 109.041C50.9388 107.73 42.9464 106.317 34.9775 104.755C33.1041 104.39 31.2278 104.039 29.3515 103.689C22.7577 102.348 18.0478 100.937 13.0156 96.3726C13.0156 95.7126 13.0156 95.0526 13.0156 94.3726C11.7987 94.2901 10.5819 94.2076 9.3281 94.1226C5.17846 93.5615 2.67776 92.8077 0.0156003 89.3726C-0.0912882 86.2729 0.362924 83.3969 1.0156 80.3726C3.6556 80.0426 6.2956 79.7126 9.0156 79.3726C9.09423 78.6224 9.17287 77.8722 9.25388 77.0992C10.2023 73.7042 11.3912 72.8107 14.2031 70.7476C15.0165 70.1431 15.8299 69.5385 16.6679 68.9156C19.0156 67.3726 19.0156 67.3726 22.2656 66.0601C26.0659 63.7281 26.9287 60.767 28.7617 56.8023C32.4403 49.6743 40.9032 46.2302 48.0156 43.3726C51.5894 42.3387 55.2005 41.4878 58.8471 40.7532C60.5914 40.3825 62.3082 39.8871 64.0156 39.3726C64.3456 38.3826 64.6756 37.3926 65.0156 36.3726C66.0675 36.3932 67.1194 36.4139 68.2031 36.4351C71.9987 35.7917 71.9987 35.7917 73.4531 33.4781C74.6971 31.1339 75.8652 28.7639 77.0156 26.3726C80.444 21.0395 85.6513 17.6155 91.0156 14.3726C91.6756 14.3726 92.3356 14.3726 93.0156 14.3726C93.383 13.2318 93.383 13.2318 93.7578 12.0679C96.293 6.63538 102.555 3.83479 107.891 1.49762C117.217 -1.60493 127.6 0.83314 137.016 2.37262ZM95.0156 13.3726C93.2441 15.8519 93.2441 15.8519 92.0156 18.3726C91.2731 19.0945 90.5306 19.8164 89.7656 20.5601C82.557 27.9185 82.557 27.9185 80.0156 37.3726C78.3656 37.7026 76.7156 38.0326 75.0156 38.3726C75.0156 39.0326 75.0156 39.6926 75.0156 40.3726C74.2949 40.4728 73.5743 40.5731 72.8318 40.6763C69.5365 41.1433 66.245 41.6328 62.9531 42.1226C61.2525 42.3585 61.2525 42.3585 59.5176 42.5992C53.19 43.5585 48.2018 44.5179 43.0156 48.3726C42.6856 49.3626 42.3556 50.3526 42.0156 51.3726C41.4381 51.4964 40.8606 51.6201 40.2656 51.7476C36.0337 52.9231 33.6564 56.4666 31.2031 59.9351C29.7236 62.52 29.7236 62.5201 30.0156 66.3726C29.1281 66.6105 29.1281 66.6105 28.2226 66.8531C22.9521 68.4093 19.4697 69.8718 16.0156 74.3726C14.68 77.5396 14.68 77.5396 14.0156 80.3726C13.1081 80.4551 12.2006 80.5376 11.2656 80.6226C7.58078 81.473 6.28825 82.4007 4.0156 85.3726C4.0156 86.3626 4.0156 87.3526 4.0156 88.3726C9.84653 91.4269 15.4909 92.1185 22.0039 92.8453C25.0156 93.3726 25.0156 93.3726 27.0156 95.3726C30.2543 96.4522 32.6759 96.5059 36.0781 96.4976C37.1416 96.5002 38.2051 96.5028 39.3008 96.5054C41.9826 96.557 41.9826 96.557 44.0156 95.3726C49.8117 95.0711 55.264 95.9122 60.9531 96.8726C61.8277 97.0157 62.7024 97.1588 63.6035 97.3062C65.7417 97.6567 67.8788 98.014 70.0156 98.3726C70.1797 99.3189 70.1797 99.3189 70.3471 100.284C70.8466 102.686 70.8466 102.686 73.7109 103.787C74.8427 104.186 75.9745 104.586 77.1406 104.998C78.2569 105.402 79.3733 105.807 80.5234 106.224C82.252 106.793 82.252 106.793 84.0156 107.373C85.1049 107.754 86.1941 108.136 87.3164 108.529C92.0089 109.599 96.2945 109.418 101.078 109.248C114.555 109.041 124.25 112.13 136.043 118.822C142.834 122.365 149.57 122.853 157.141 122.185C160.22 120.851 161.947 118.973 164.016 116.373C163.966 113.612 163.966 113.612 163.016 111.373C159.056 110.383 159.056 110.383 155.016 109.373C155.752 109.347 156.488 109.321 157.246 109.294C163.332 108.941 166.341 108.432 171.016 104.373C173.343 103.706 175.64 103.258 178.027 102.865C180.232 102.501 180.232 102.501 182.016 100.373C181.356 100.043 180.696 99.7126 180.016 99.3726C181.994 96.6598 183.204 95.1011 186.016 93.3726C189.315 93.0046 192.424 93.1305 195.738 93.2945C198.69 93.3649 200.872 93.0989 203.703 92.3726C211.564 90.6072 222.133 89.3476 229.719 92.4937C231.097 93.3944 232.46 94.3182 233.805 95.2672C237.669 97.1992 241.682 96.6262 245.902 96.3531C249.347 96.3747 251.796 97.1992 255.016 98.3726C258.192 99.0283 260.861 99.2051 264.016 98.3726C266.829 96.0283 268.875 93.3249 271.016 90.3726C271.676 89.7126 272.336 89.0526 273.016 88.3726C272.686 87.7126 272.356 87.0526 272.016 86.3726C273.752 86.4248 273.752 86.4248 275.523 86.4781C277.062 86.5062 278.602 86.5335 280.141 86.5601C280.901 86.5853 281.662 86.6104 282.445 86.6363C287.418 86.7006 290.652 86.0286 295.016 83.3726C294.026 82.0526 293.036 80.7326 292.016 79.3726C292.651 79.3831 293.286 79.3936 293.94 79.4044C296.84 79.4461 299.74 79.472 302.641 79.4976C304.139 79.5228 304.139 79.5228 305.668 79.5484C310.856 79.5828 315.165 79.4752 320.016 77.3726C319.445 74.0652 318.577 72.5313 316.016 70.3726C314.054 69.5894 314.054 69.5894 311.891 69.0601C308.31 67.972 305.759 66.6092 302.766 64.3726C292.935 57.5476 280.546 57.6706 269.016 58.3726C265.898 59.0191 265.898 59.0191 265.016 61.3726C264.376 61.0632 263.737 60.7539 263.078 60.4351C259.095 59.0533 255.199 58.719 251.016 58.3726C250.686 57.3826 250.356 56.3926 250.016 55.3726C247.234 53.2956 247.234 53.2956 244.016 51.3726C242.913 50.5914 242.913 50.5914 241.789 49.7945C238.343 48.0279 235.177 47.8651 231.391 47.6226C223.402 46.878 218.515 44.0568 212.016 39.3726C203.853 34.6532 194.976 30.6722 185.496 29.9625C184.705 29.9015 183.913 29.8405 183.098 29.7776C181.541 29.6769 179.982 29.61 178.422 29.5828C174.986 29.3772 172.817 29.1068 170.224 26.731C169.065 25.3398 167.929 23.9293 166.814 22.5025C163.828 18.9653 160.128 16.6193 156.266 14.1226C155.476 13.6047 154.686 13.0867 153.872 12.553C135.305 0.670401 112.647 -1.13845 95.0156 13.3726Z" fill="#040404"/>
<path d="M198.016 29.3723C198.985 29.6044 199.954 29.8364 200.953 30.0755C209.557 32.2263 209.557 32.2263 213.016 35.3723C213.766 38.0598 213.766 38.0598 214.016 40.3723C208.88 38.7216 203.973 36.7083 199.016 34.5911C194.014 32.559 189.543 31.1426 184.141 30.7473C183.174 30.6726 182.207 30.5978 181.211 30.5208C180.486 30.4718 179.762 30.4228 179.016 30.3723C179.016 30.0423 179.016 29.7123 179.016 29.3723C185.969 27.1889 191.04 27.5039 198.016 29.3723Z" fill="#0F0F0F"/>
<path d="M127.016 1.37238C127.016 2.03238 127.016 2.69238 127.016 3.37238C126.182 3.40976 125.348 3.44714 124.488 3.48566C117.461 3.89619 111.577 4.81473 105.016 7.37238C105.346 5.72238 105.676 4.07238 106.016 2.37238C112.547 -0.452183 120.195 -0.628988 127.016 1.37238Z" fill="#131413"/>
<path d="M245.016 50.3726C249.447 51.581 251.997 52.8892 255.016 56.3726C253.391 57.1226 253.391 57.1226 251.016 57.3726C247.766 55.6226 247.766 55.6226 245.016 53.3726C245.016 52.3826 245.016 51.3926 245.016 50.3726ZM243.016 57.3726C245.656 57.3726 248.296 57.3726 251.016 57.3726C251.016 57.7026 251.016 58.0326 251.016 58.3726C248.376 58.3726 245.736 58.3726 243.016 58.3726C243.016 58.0426 243.016 57.7126 243.016 57.3726Z" fill="#161616"/>
<path d="M189.016 102.373C193.636 103.033 198.256 103.693 203.016 104.373C202.686 105.033 202.356 105.693 202.016 106.373C198.386 106.373 194.756 106.373 191.016 106.373C190.356 105.053 189.696 103.733 189.016 102.373Z" fill="#D9DAD9"/>
<path d="M73.0156 36.3726C75.3256 36.3726 77.6356 36.3726 80.0156 36.3726C79.3556 37.0326 78.6956 37.6926 78.0156 38.3726C77.0256 38.3726 76.0356 38.3726 75.0156 38.3726C75.0156 39.0326 75.0156 39.6926 75.0156 40.3726C76.6656 40.3726 78.3156 40.3726 80.0156 40.3726C80.0156 40.7026 80.0156 41.0326 80.0156 41.3726C77.7056 41.3726 75.3956 41.3726 73.0156 41.3726C73.0156 39.7226 73.0156 38.0726 73.0156 36.3726Z" fill="#282728"/>
<path d="M220.016 44.3726C222.986 44.3726 225.956 44.3726 229.016 44.3726C229.016 45.3626 229.016 46.3526 229.016 47.3726C226.203 47.5601 226.203 47.5601 223.016 47.3726C222.026 46.3826 221.036 45.3926 220.016 44.3726Z" fill="#0D0A0D"/>
<path d="M276.016 55.3726C278.986 55.3726 281.956 55.3726 285.016 55.3726C285.016 56.3626 285.016 57.3526 285.016 58.3726C283.036 58.3726 281.056 58.3726 279.016 58.3726C279.016 57.7126 279.016 57.0526 279.016 56.3726C278.026 56.0426 277.036 55.7126 276.016 55.3726Z" fill="#040404"/>
<path d="M73.0156 41.3726C73.0156 42.3626 73.0156 43.3526 73.0156 44.3726C70.3756 44.3726 67.7356 44.3726 65.0156 44.3726C64.6856 43.7126 64.3556 43.0526 64.0156 42.3726C67.0741 41.8288 69.9034 41.3726 73.0156 41.3726Z" fill="#E0E7E0"/>
<path d="M230.016 92.3726C232.326 92.3726 234.636 92.3726 237.016 92.3726C237.016 93.3626 237.016 94.3526 237.016 95.3726C237.676 95.7026 238.336 96.0326 239.016 96.3726C233.477 95.7572 233.477 95.7572 231.141 93.8101C230.769 93.3357 230.398 92.8613 230.016 92.3726Z" fill="#E0E3E0"/>
<path d="M237.016 48.3726C238.996 49.0326 240.976 49.6926 243.016 50.3726C243.016 51.0326 243.016 51.6926 243.016 52.3726C241.036 52.3726 239.056 52.3726 237.016 52.3726C237.016 51.0526 237.016 49.7326 237.016 48.3726Z" fill="#D8DED8"/>
<path d="M113.016 4.37256C113.016 5.69256 113.016 7.01256 113.016 8.37256C111.036 8.37256 109.056 8.37256 107.016 8.37256C107.346 7.38256 107.676 6.39256 108.016 5.37256C111.016 4.37256 111.016 4.37256 113.016 4.37256Z" fill="#E7EBE7"/>
<path d="M84.0156 27.3726C84.3456 27.3726 84.6756 27.3726 85.0156 27.3726C85.3281 29.6226 85.3281 29.6226 85.0156 32.3726C82.5156 34.6851 82.5156 34.6851 80.0156 36.3726C80.6606 32.8895 82.057 30.3105 84.0156 27.3726Z" fill="#D0D6D0"/>
</svg>
