<svg width="253" height="92" viewBox="0 0 253 92" fill="none" xmlns="http://www.w3.org/2000/svg">
<path d="M120 0C121.32 0 122.64 0 124 0C124.495 0.99 124.495 0.99 125 2C125.727 1.88141 126.454 1.76281 127.203 1.64062C140.121 -0.0155604 148.923 4.23633 159 12C161.834 14.2534 161.834 14.2534 165.125 14.1875C169.885 15.1855 172.177 17.2798 175.844 20.3438C178.41 22.315 180.856 23.2744 184 24C184.031 25.1447 184.031 25.1447 184.062 26.3125C184.797 29.4139 184.797 29.4139 188.562 30.8125C189.697 31.2044 190.831 31.5963 192 32C192 32.99 192 33.98 192 35C193.149 35.098 194.297 35.1959 195.48 35.2969C204.197 36.1129 212.052 37.2416 220.301 40.293C223.283 41.0742 225.065 40.8393 228 40C228.031 40.8662 228.031 40.8662 228.062 41.75C229.577 45.3839 232.56 46.2485 236 48C236 48.99 236 49.98 236 51C236.853 51.0387 236.853 51.0387 237.723 51.0781C243.487 51.5015 247.377 52.4364 252 56C253.659 60.4887 252.959 63.7095 251 68C249.667 69.3333 248.333 70.6667 247 72C245.787 75.0543 245.787 75.0543 245 78C243.112 81.7758 238.225 82.5408 234.449 83.9531C229.671 85.4034 224.659 86.3294 220 84C218.265 84.964 216.531 85.9342 214.852 86.9922C205.475 92.0957 190.727 89.1429 180.855 86.8516C178 86 178 86 175.801 84.8359C173.836 83.6734 173.836 83.6734 171 85C170.154 85.5156 169.309 86.0312 168.438 86.5625C166 88 166 88 164 88C164 89.32 164 90.64 164 92C162.68 92 161.36 92 160 92C160 91.34 160 90.68 160 90C158.515 90.3712 158.515 90.3712 157 90.75C152.893 91.3532 150.578 90.047 147.059 88.0508C144.913 86.9557 142.971 86.3967 140.625 85.875C137 85 137 85 135 83C135 82.01 135 81.02 135 80C132.69 80 130.38 80 128 80C128 79.34 128 78.68 128 78C126.975 78.2887 125.95 78.5775 124.895 78.875C123.534 79.2503 122.173 79.6253 120.812 80C120.139 80.1908 119.465 80.3816 118.771 80.5781C115.094 81.5826 111.815 82.237 108 82C108 82.66 108 83.32 108 84C106.375 83.859 104.75 83.7121 103.125 83.5625C101.768 83.4407 101.768 83.4407 100.383 83.3164C98 83 98 83 96 82C96 82.66 96 83.32 96 84C94.68 84 93.36 84 92 84C91.7899 83.2137 91.5798 82.4273 91.3633 81.6172C90.2262 78.7723 90.2262 78.7723 87.3555 77.8203C86.31 77.5909 85.2646 77.3614 84.1875 77.125C82.631 76.7576 82.631 76.7576 81.043 76.3828C76.3367 75.7908 73.0539 76.774 68.9375 79C66.8523 80.1231 65.1314 80.9699 62.8164 81.5C62.217 81.665 61.6176 81.83 61 82C60.67 82.66 60.34 83.32 60 84C56.1876 84.0881 52.3756 84.1408 48.5625 84.1875C47.4932 84.2126 46.4239 84.2378 45.3223 84.2637C37.8263 84.3324 31.7236 83.3618 25 80C22.7927 79.9291 20.5833 79.9158 18.375 79.9375C16.5922 79.951 16.5922 79.951 14.7734 79.9648C13.4006 79.9822 13.4006 79.9822 12 80C12 79.34 12 78.68 12 78C10.7625 77.67 9.525 77.34 8.25 77C7.20586 76.7216 7.20586 76.7216 6.14062 76.4375C3.71098 75.8665 3.71098 75.8665 0 76C0.185625 74.9481 0.37125 73.8962 0.5625 72.8125C0.950793 69.4288 0.882475 67.2357 0 64C1.66924 63.0462 3.33962 62.0943 5.01562 61.1523C6.82065 60.1041 8.57072 58.9627 10.3125 57.8125C14.5903 55.322 19.1435 55.1954 24 55C23.8969 53.9481 23.7938 52.8963 23.6875 51.8125C24 48 24 48 26.3125 45.25C27.6428 44.1362 27.6428 44.1362 29 43C29.3919 42.4728 29.7838 41.9455 30.1875 41.4023C33.0348 39.1994 36.2211 39.4258 39.6875 39.3125C40.3894 39.2783 41.0913 39.2442 41.8145 39.209C43.5424 39.1267 45.2712 39.0617 47 39C47.33 38.01 47.66 37.02 48 36C48.8946 36.0851 49.7892 36.1702 50.7109 36.2578C54.8402 35.9341 55.7974 34.8192 58.625 31.875C68.0921 22.8608 80.6619 18.2136 93.5 16.3125C98.4971 15.3186 102.229 12.2793 106.247 9.323C109.324 7.07821 112.131 5.32689 115.75 4.125C116.823 3.75375 117.895 3.3825 119 3C119.33 2.01 119.66 1.02 120 0Z" fill="#F6FAF6"/>
<path d="M120 0C121.32 0 122.64 0 124 0C124.495 0.99 124.495 0.99 125 2C125.727 1.88141 126.454 1.76281 127.203 1.64062C140.121 -0.0155604 148.923 4.23633 159 12C161.834 14.2534 161.834 14.2534 165.125 14.1875C169.885 15.1855 172.177 17.2798 175.844 20.3438C178.41 22.315 180.856 23.2744 184 24C184.031 25.1447 184.031 25.1447 184.062 26.3125C184.797 29.4139 184.797 29.4139 188.562 30.8125C189.697 31.2044 190.831 31.5963 192 32C192 32.99 192 33.98 192 35C193.149 35.098 194.297 35.1959 195.48 35.2969C204.197 36.1129 212.052 37.2416 220.301 40.293C223.283 41.0742 225.065 40.8393 228 40C228.031 40.8662 228.031 40.8662 228.062 41.75C229.577 45.3839 232.56 46.2485 236 48C236 48.99 236 49.98 236 51C236.853 51.0387 236.853 51.0387 237.723 51.0781C243.487 51.5015 247.377 52.4364 252 56C253.659 60.4887 252.959 63.7095 251 68C249.667 69.3333 248.333 70.6667 247 72C245.787 75.0543 245.787 75.0543 245 78C243.112 81.7758 238.225 82.5408 234.449 83.9531C229.671 85.4034 224.659 86.3294 220 84C218.265 84.964 216.531 85.9342 214.852 86.9922C205.475 92.0957 190.727 89.1429 180.855 86.8516C178 86 178 86 175.801 84.8359C173.836 83.6734 173.836 83.6734 171 85C170.154 85.5156 169.309 86.0312 168.438 86.5625C166 88 166 88 164 88C164 89.32 164 90.64 164 92C162.68 92 161.36 92 160 92C160 91.34 160 90.68 160 90C158.515 90.3712 158.515 90.3712 157 90.75C152.893 91.3532 150.578 90.047 147.059 88.0508C144.913 86.9557 142.971 86.3967 140.625 85.875C137 85 137 85 135 83C135 82.01 135 81.02 135 80C132.69 80 130.38 80 128 80C128 79.34 128 78.68 128 78C126.975 78.2887 125.95 78.5775 124.895 78.875C123.534 79.2503 122.173 79.6253 120.812 80C120.139 80.1908 119.465 80.3816 118.771 80.5781C115.094 81.5826 111.815 82.237 108 82C108 82.66 108 83.32 108 84C106.375 83.859 104.75 83.7121 103.125 83.5625C101.768 83.4407 101.768 83.4407 100.383 83.3164C98 83 98 83 96 82C96 82.66 96 83.32 96 84C94.68 84 93.36 84 92 84C91.7899 83.2137 91.5798 82.4273 91.3633 81.6172C90.2262 78.7723 90.2262 78.7723 87.3555 77.8203C86.31 77.5909 85.2646 77.3614 84.1875 77.125C82.631 76.7576 82.631 76.7576 81.043 76.3828C76.3367 75.7908 73.0539 76.774 68.9375 79C66.8523 80.1231 65.1314 80.9699 62.8164 81.5C62.217 81.665 61.6176 81.83 61 82C60.67 82.66 60.34 83.32 60 84C56.1876 84.0881 52.3756 84.1408 48.5625 84.1875C47.4932 84.2126 46.4239 84.2378 45.3223 84.2637C37.8263 84.3324 31.7236 83.3618 25 80C22.7927 79.9291 20.5833 79.9158 18.375 79.9375C16.5922 79.951 16.5922 79.951 14.7734 79.9648C13.4006 79.9822 13.4006 79.9822 12 80C12 79.34 12 78.68 12 78C10.7625 77.67 9.525 77.34 8.25 77C7.20586 76.7216 7.20586 76.7216 6.14062 76.4375C3.71098 75.8665 3.71098 75.8665 0 76C0.185625 74.9481 0.37125 73.8962 0.5625 72.8125C0.950793 69.4288 0.882475 67.2357 0 64C1.66924 63.0462 3.33962 62.0943 5.01562 61.1523C6.82065 60.1041 8.57072 58.9627 10.3125 57.8125C14.5903 55.322 19.1435 55.1954 24 55C23.8969 53.9481 23.7938 52.8963 23.6875 51.8125C24 48 24 48 26.3125 45.25C27.6428 44.1362 27.6428 44.1362 29 43C29.3919 42.4728 29.7838 41.9455 30.1875 41.4023C33.0348 39.1994 36.2211 39.4258 39.6875 39.3125C40.3894 39.2783 41.0913 39.2442 41.8145 39.209C43.5424 39.1267 45.2712 39.0617 47 39C47.33 38.01 47.66 37.02 48 36C48.8946 36.0851 49.7892 36.1702 50.7109 36.2578C54.8402 35.9341 55.7974 34.8192 58.625 31.875C68.0921 22.8608 80.6619 18.2136 93.5 16.3125C98.4971 15.3186 102.229 12.2793 106.247 9.323C109.324 7.07821 112.131 5.32689 115.75 4.125C116.823 3.75375 117.895 3.3825 119 3C119.33 2.01 119.66 1.02 120 0ZM110 11C109.424 11.3004 108.848 11.6007 108.254 11.9102C99.452 16.0903 99.452 16.0903 93 23C93 23.99 93 24.98 93 26C92.34 25.67 91.68 25.34 91 25C84.8979 24.3898 81.1294 26.0156 76 29C76.66 27.68 77.32 26.36 78 25C69.6622 26.2759 63.07 31.5073 57.1797 37.2891C55.6216 39.2025 55.6216 39.2025 56 43C53.0183 43.903 50.1032 44.6734 47 45C45.315 44.0311 43.6482 43.0301 42 42C37.2767 41.644 33.9021 42.4109 29.9375 45C27.3096 49.069 27.5382 52.2894 28 57C27.3361 56.9652 26.6723 56.9304 25.9883 56.8945C18.9775 56.6103 18.9775 56.6103 13 60C13 60.66 13 61.32 13 62C12.0513 62.0825 11.1025 62.165 10.125 62.25C6.97023 62.6654 6.97023 62.6654 5.625 64.75C4.8737 67.4547 4.51207 69.2118 5 72C7.92991 75.1042 9.43327 75.9621 13.7422 76.25C15.1206 76.181 16.4983 76.0972 17.875 76C26.4847 75.6607 26.4847 75.6607 29.75 78C34.6667 81.0257 39.371 80.7733 45 80C47.9881 78.9384 50.2791 77.6744 53 76C53 75.34 53 74.68 53 74C52.01 73.505 52.01 73.505 51 73C51.834 72.902 52.668 72.8041 53.5273 72.7031C60.6402 71.758 66.6514 70.3794 73 67C73.5981 67.7425 74.1963 68.485 74.8125 69.25C78.6875 73.1694 83.8917 74.3193 89 76C89.7605 76.3661 90.5211 76.7322 91.3047 77.1094C95.1334 78.3745 98.6257 78.2554 102.625 78.0625C103.824 78.0056 103.824 78.0056 105.048 77.9475C111.49 77.4418 115.558 75.4225 120.738 71.5117C123.862 69.424 126.337 69.7069 130 70C131.68 69.0231 133.349 68.0261 135 67C136.875 67.25 136.875 67.25 139 68C141.331 68.3496 143.664 68.6855 146 69C145.67 70.98 145.34 72.96 145 75C147.622 77.1538 149.644 78.4007 153 79C152.67 79.66 152.34 80.32 152 81C157.135 80.3581 161.994 79.3173 167 78C167 76.68 167 75.36 167 74C167.615 74.4215 168.23 74.843 168.863 75.2773C169.672 75.8252 170.48 76.373 171.312 76.9375C172.113 77.4828 172.914 78.028 173.738 78.5898C177.934 81.2058 181.517 81.1927 186.375 81.25C187.682 81.2758 188.989 81.3016 190.336 81.3281C194.158 80.9858 195.991 80.3171 199 78C200.328 75.933 200.328 75.933 201 74C202.299 75.0209 202.299 75.0209 203.625 76.0625C206.832 78.312 206.832 78.312 210.312 77.8125C212.895 77.2627 212.895 77.2627 214 76C217.294 75.5417 220.593 75.1631 223.898 74.793C227.519 73.8672 227.978 72.978 230 70C231.98 69.3477 231.98 69.3477 234.188 69.0625C239.25 68.1579 242.856 65.9585 247 63C245.691 59.878 245.691 59.878 243 58C243 57.01 243 56.02 243 55C242.348 54.8414 241.695 54.6829 241.023 54.5195C239.712 54.1696 239.712 54.1696 238.375 53.8125C237.087 53.4819 237.087 53.4819 235.773 53.1445C232.871 51.9468 230.956 50.3416 228.616 48.2815C225.845 46.0836 222.717 44.739 219.5 43.3125C218.862 43.0179 218.224 42.7234 217.566 42.4199C206.505 37.387 198.688 37.2672 187 40C187.039 39.2124 187.077 38.4248 187.117 37.6133C187.294 34.8688 187.294 34.8688 185.125 33.1875C183.115 31.8374 183.115 31.8374 181 32C180.969 30.6388 180.969 30.6388 180.938 29.25C180.292 25.7118 180.292 25.7118 176.875 23.875C175.586 23.2449 174.294 22.6199 173 22C171.851 21.2975 170.705 20.5892 169.562 19.875C166.999 18.3771 164.787 17.6714 161.875 17.125C158.366 16.3803 158.053 16.0635 155.562 13.0625C151.721 8.47137 147.166 7.35035 141.288 6.69995C138.393 6.56245 135.523 6.53195 132.625 6.5625C131.604 6.57152 130.582 6.58055 129.53 6.58984C122.305 6.75645 116.407 7.47847 110 11Z" fill="#040404"/>
<path d="M120 0C121.32 0 122.64 0 124 0C124.495 0.99 124.495 0.99 125 2C125.727 1.88141 126.454 1.76281 127.203 1.64062C140.121 -0.0155604 148.923 4.23633 159 12C161.834 14.2534 161.834 14.2534 165.125 14.1875C169.885 15.1855 172.177 17.2798 175.844 20.3438C178.41 22.315 180.856 23.2744 184 24C184.031 25.1447 184.031 25.1447 184.062 26.3125C184.797 29.4139 184.797 29.4139 188.562 30.8125C189.697 31.2044 190.831 31.5963 192 32C192 32.99 192 33.98 192 35C193.914 35.1992 193.914 35.1992 195.867 35.4023C197.536 35.5805 199.206 35.7589 200.875 35.9375C202.138 36.068 202.138 36.068 203.426 36.2012C204.231 36.2882 205.037 36.3752 205.867 36.4648C206.611 36.5434 207.354 36.6219 208.121 36.7029C210 37 210 37 212 38C212 38.66 212 39.32 212 40C210.793 39.7525 210.793 39.7525 209.562 39.5C204.291 38.7601 199.094 38.3021 194 40C191.667 40.0395 189.333 40.044 187 40C186.938 39.2369 186.876 38.4738 186.812 37.6875C186.267 34.7863 186.267 34.7863 183.562 33.5625C181 32 181 32 180.219 29.1328C178.613 25.0052 176.847 24.2741 172.938 22.3125C171.772 21.7234 170.607 21.1343 169.406 20.5273C165.907 18.9585 162.447 17.8172 158.777 16.7422C156.055 15.6056 154.817 13.271 153 11C146.511 7.74458 139.75 7.4874 132.625 7.5625C131.604 7.57152 130.582 7.58055 129.53 7.58984C122.297 7.75663 116.419 8.49154 110 12C108.783 12.6122 107.565 13.2242 106.348 13.8359C105.062 14.5105 103.78 15.1902 102.5 15.875C101.899 16.1902 101.298 16.5054 100.679 16.8301C96.4989 19.2118 94.7685 21.5661 93 26C92.4199 25.9652 91.8398 25.9304 91.2422 25.8945C85.9444 25.7109 82.6826 26.259 78 29C77.34 29 76.68 29 76 29C76.495 27.515 76.495 27.515 77 26C68.6901 28.1307 61.9288 33.0689 57 40C56.67 40.99 56.34 41.98 56 43C53.1572 44.5858 50.2109 45.4907 47 46C44.5 44.625 44.5 44.625 42 43C37.7335 42.7454 34.1735 43.2959 30.5 45.5C28.2439 49.2602 28.2564 52.6412 28 57C22.06 57.495 22.06 57.495 16 58C16 57.34 16 56.68 16 56C18.7088 54.6456 21.0093 54.935 24 55C23.8969 53.9481 23.7937 52.8963 23.6875 51.8125C24 48 24 48 26.3125 45.25C27.6428 44.1362 27.6428 44.1362 29 43C29.3919 42.4728 29.7837 41.9455 30.1875 41.4023C33.0348 39.1994 36.2211 39.4258 39.6875 39.3125C40.3894 39.2783 41.0913 39.2442 41.8145 39.209C43.5424 39.1267 45.2712 39.0617 47 39C47.33 38.01 47.66 37.02 48 36C48.8946 36.0851 49.7892 36.1702 50.7109 36.2578C54.8402 35.9341 55.7974 34.8192 58.625 31.875C68.0921 22.8608 80.6619 18.2136 93.5 16.3125C98.4971 15.3186 102.229 12.2793 106.247 9.323C109.324 7.07821 112.131 5.32689 115.75 4.125C116.823 3.75375 117.895 3.3825 119 3C119.33 2.01 119.66 1.02 120 0Z" fill="#070707"/>
<path d="M148 8.00009C151.14 7.52907 153.251 7.49648 155.934 9.30087C157.29 10.4084 158.645 11.5164 160 12.6251C162.075 14.2762 162.075 14.2762 165.438 14.4376C170.089 15.1721 172.296 17.3789 175.844 20.3438C178.41 22.3151 180.856 23.2745 184 24.0001C184.021 24.7632 184.041 25.5263 184.062 26.3126C184.797 29.414 184.797 29.414 188.562 30.8126C189.697 31.2045 190.831 31.5963 192 32.0001C192 32.9901 192 33.9801 192 35.0001C193.276 35.1329 194.552 35.2656 195.867 35.4024C197.536 35.5806 199.206 35.759 200.875 35.9376C201.717 36.0246 202.559 36.1116 203.426 36.2013C204.231 36.2883 205.037 36.3753 205.867 36.4649C206.611 36.5435 207.354 36.622 208.121 36.703C210 37.0001 210 37.0001 212 38.0001C212 38.6601 212 39.3201 212 40.0001C211.196 39.8351 210.391 39.6701 209.562 39.5001C204.291 38.7602 199.094 38.3022 194 40.0001C191.667 40.0396 189.333 40.0441 187 40.0001C186.938 39.237 186.876 38.4738 186.812 37.6876C186.267 34.7863 186.267 34.7863 183.562 33.5626C181 32.0001 181 32.0001 180.219 29.1329C178.613 25.0053 176.847 24.2742 172.938 22.3126C171.19 21.4289 171.19 21.4289 169.406 20.5274C165.912 18.9608 162.457 17.8207 158.793 16.7462C156.004 15.5858 154.724 13.401 153 11.0001C150.382 9.6671 150.382 9.6671 148 9.00009C148 8.67009 148 8.34009 148 8.00009Z" fill="#0F0F0F"/>
<path d="M29.6875 43.75C30.8322 43.8738 30.8322 43.8738 32 44C31.5256 44.4744 31.0513 44.9488 30.5625 45.4375C28.2627 49.2091 28.3225 52.6137 28 57C22.06 57.495 22.06 57.495 16 58C16 57.34 16 56.68 16 56C18.7088 54.6456 21.0093 54.935 24 55C23.9381 53.9275 23.8762 52.855 23.8125 51.75C24 48 24 48 25.1875 45.5625C27 44 27 44 29.6875 43.75Z" fill="#121212"/>
<path d="M224 68C225.32 68 226.64 68 228 68C228.625 69.875 228.625 69.875 229 72C226.296 74.7043 224.258 74.5678 220.5 75.0625C216.102 75.545 216.102 75.545 212 77C212 75.35 212 73.7 212 72C215.96 72 219.92 72 224 72C223.67 71.01 223.34 70.02 223 69C223.33 68.67 223.66 68.34 224 68Z" fill="#E5E9E5"/>
<path d="M212 38C212.615 38.1444 213.23 38.2887 213.863 38.4375C215.076 38.7159 215.076 38.7159 216.312 39C217.113 39.1856 217.914 39.3713 218.738 39.5625C221.107 40.095 221.107 40.095 224 40C225.32 40 226.64 40 228 40C228 41.32 228 42.64 228 44C221.801 44.3795 217.552 43.8352 212 41C212 40.01 212 39.02 212 38Z" fill="black"/>
<path d="M148 8.00001C151.938 7.57934 153.631 7.75711 156.992 9.96876C157.944 10.8041 158.895 11.6394 159.875 12.5C160.842 13.3353 161.809 14.1706 162.805 15.0313C163.529 15.6809 164.254 16.3306 165 17C162 18 162 18 159.562 17.375C156.499 15.7313 155.156 13.6945 153 11C150.382 9.66702 150.382 9.66702 148 9.00001C148 8.67001 148 8.34001 148 8.00001Z" fill="#181718"/>
<path d="M163 14C168.023 15.1818 171.095 16.4499 175 20C169.283 20.4573 166.514 19.5227 162 16C162.33 15.34 162.66 14.68 163 14Z" fill="#040404"/>
<path d="M48 71C52.29 71 56.58 71 61 71C61 71.33 61 71.66 61 72C57.7 72.33 54.4 72.66 51 73C51.66 73.33 52.32 73.66 53 74C52.67 74.99 52.34 75.98 52 77C51.01 77.33 50.02 77.66 49 78C48.67 75.69 48.34 73.38 48 71Z" fill="#D0D3D0"/>
<path d="M132 68C132.66 68.33 133.32 68.66 134 69C133.01 70.485 133.01 70.485 132 72C129.18 72.293 129.18 72.293 125.875 72.1875C124.231 72.1469 124.231 72.1469 122.555 72.1055C121.29 72.0533 121.29 72.0533 120 72C121.277 70.5078 121.277 70.5078 123 69C126.562 68.875 126.562 68.875 130 69C130.66 68.67 131.32 68.34 132 68Z" fill="#161516"/>
<path d="M232 52C233.815 52.4485 235.627 52.9091 237.438 53.375C238.447 53.6302 239.456 53.8855 240.496 54.1484C243 55 243 55 244 57C243.01 57.33 242.02 57.66 241 58C241 57.34 241 56.68 241 56C238.03 56 235.06 56 232 56C232 54.68 232 53.36 232 52Z" fill="#E1E3E1"/>
<path d="M78 26C77.25 28.4375 77.25 28.4375 76 31C73.875 31.8125 73.875 31.8125 72 32C71.67 30.35 71.34 28.7 71 27C74.625 24.875 74.625 24.875 78 26Z" fill="#D1D7D1"/>
<path d="M148 64C149.32 64 150.64 64 152 64C151.688 65.9375 151.688 65.9375 151 68C150.01 68.33 149.02 68.66 148 69C147.67 70.65 147.34 72.3 147 74C146.67 74 146.34 74 146 74C146 72.35 146 70.7 146 69C144.35 69 142.7 69 141 69C141 68.67 141 68.34 141 68C142.98 67.67 144.96 67.34 147 67C147.33 66.01 147.66 65.02 148 64Z" fill="#BBBFBB"/>
<path d="M212 38C214.64 38.66 217.28 39.32 220 40C220.33 41.32 220.66 42.64 221 44C218.03 43.01 215.06 42.02 212 41C212 40.01 212 39.02 212 38Z" fill="#070707"/>
<path d="M93 23C93.99 23.33 94.98 23.66 96 24C96 25.32 96 26.64 96 28C93.36 28 90.72 28 88 28C88 27.01 88 26.02 88 25C90.475 25.495 90.475 25.495 93 26C93 25.01 93 24.02 93 23Z" fill="#E7EEE7"/>
<path d="M7 63C7.66 63.33 8.32 63.66 9 64C8.67 67.3 8.34 70.6 8 74C7.01 73.34 6.02 72.68 5 72C4.56867 67.9455 4.69981 66.4503 7 63Z" fill="#E3E8E3"/>
<path d="M248 56C248 58.64 248 61.28 248 64C247.01 63.67 246.02 63.34 245 63C245.66 63 246.32 63 247 63C245.35 61.02 243.7 59.04 242 57C244 56 244 56 248 56Z" fill="#222022"/>
<path d="M86 25.9998C85.34 26.6598 84.68 27.3198 84 27.9998C82.68 27.9998 81.36 27.9998 80 27.9998C80 29.3198 80 30.6398 80 31.9998C78.35 31.9998 76.7 31.9998 75 31.9998C77.6519 28.2674 81.0413 23.5204 86 25.9998Z" fill="#E7EDE7"/>
<path d="M164 72C165.32 72 166.64 72 168 72C167.67 73.98 167.34 75.96 167 78C166.01 78 165.02 78 164 78C164 76.02 164 74.04 164 72Z" fill="#CACDCA"/>
<path d="M50 72C52.31 72 54.62 72 57 72C56.67 73.32 56.34 74.64 56 76C55.01 76 54.02 76 53 76C53 75.34 53 74.68 53 74C52.01 73.67 51.02 73.34 50 73C50 72.67 50 72.34 50 72Z" fill="#161316"/>
<path d="M72 66C74.0205 67.6417 76.0204 69.3091 78 71C78 71.33 78 71.66 78 72C76.02 72 74.04 72 72 72C72 70.02 72 68.04 72 66Z" fill="#141214"/>
<path d="M32 40C33.32 40 34.64 40 36 40C35.67 40.99 35.34 41.98 35 43C33.02 43.33 31.04 43.66 29 44C30.25 42 30.25 42 32 40Z" fill="#000100"/>
<path d="M80 72C82.64 72 85.28 72 88 72C88 72.99 88 73.98 88 75C82.25 74.25 82.25 74.25 80 72Z" fill="#D4D8D4"/>
</svg>
